<?xml version="1.0" encoding="utf-8"?>
<!-- Generator: Adobe Illustrator 19.1.0, SVG Export Plug-In . SVG Version: 6.00 Build 0)  -->
<svg version="1.1" id="Calque_1" xmlns="http://www.w3.org/2000/svg" xmlns:xlink="http://www.w3.org/1999/xlink" x="0px" y="0px"
	 viewBox="0 0 32 32" style="enable-background:new 0 0 32 32;" xml:space="preserve">
<style type="text/css">
	.st0{fill:#FFFFFF;}
	.st1{fill:#002AFF;}
</style>
<path class="st0" d="M27.4,5.9c0-0.6,0-1.2,0-1.6c0-0.8-0.5-2-0.5-2s-0.4-0.7-2-0.6C23.3,1.7,23.3,5,23.3,5l-0.1,0.9H8.8
	C8.7,5.2,8.6,4.1,8.6,3.5c0-1-0.5-0.8-1-1.4S6.4,1.9,5.4,2.3C4.3,2.6,4.4,5.9,4.4,5.9H2.5v24.8h27.4V5.9H27.4z"/>
<g>
	<g>
		<g>
			<g>
				<path class="st1" d="M29.4,4.2h-1.5V3.7c0-1.4-1.1-2.5-2.5-2.5h0c-1.4,0-2.5,1.1-2.5,2.5v0.5H9.2V3.7c0-1.4-1.1-2.5-2.5-2.5h0
					c-1.4,0-2.5,1.1-2.5,2.5v0.5H2.7c-1.4,0-2.5,1.1-2.5,2.5v23.6c0,1.4,1.1,2.5,2.5,2.5h26.6c1.4,0,2.5-1.1,2.5-2.5V6.7
					C31.8,5.3,30.7,4.2,29.4,4.2z M23.9,3.7c0-0.8,0.7-1.5,1.5-1.5h0c0.8,0,1.5,0.7,1.5,1.5v4.4c0,0.8-0.7,1.5-1.5,1.5h0
					c-0.8,0-1.5-0.7-1.5-1.5V3.7z M5.2,3.7c0-0.8,0.7-1.5,1.5-1.5h0c0.8,0,1.5,0.7,1.5,1.5c0,0,0,0,0,0v4.4c0,0.8-0.7,1.5-1.5,1.5h0
					c-0.8,0-1.5-0.7-1.5-1.5L5.2,3.7L5.2,3.7z M27.9,27.6c0,1-0.8,1.9-1.9,1.9H6.1c-1,0-1.9-0.8-1.9-1.9V16.4c0-1,0.8-1.9,1.9-1.9
					H26c1,0,1.9,0.8,1.9,1.9L27.9,27.6L27.9,27.6z"/>
			</g>
		</g>
	</g>
</g>
</svg>
