<?xml version="1.0" encoding="utf-8"?>
<!-- Generator: Adobe Illustrator 19.1.0, SVG Export Plug-In . SVG Version: 6.00 Build 0)  -->
<svg version="1.1" id="Calque_1" xmlns="http://www.w3.org/2000/svg" xmlns:xlink="http://www.w3.org/1999/xlink" x="0px" y="0px"
	 viewBox="0 0 240.1 372" style="enable-background:new 0 0 240.1 372;" xml:space="preserve">
<g>
	<g>
		<path d="M208,325.3c0.8-0.4,1.3-0.6,1.8-0.8c1.4-0.6,2.8-1.3,4.3-1.6c6.9-1.4,7.2-0.6,11.5,4.4c3.5,4.1,3,8.5,2.5,13
			c-0.9,7.9-2,15.8-3,23.7c-0.2,1.9-1.1,2.5-4.3,3.1c-1.6,0.3-2.5-0.3-3.2-1.7c-0.4-0.8-1-1.6-1.7-2.3c-1.9-2-2.3-4.2-1.7-6.8
			c1.5-6.6,2.8-13.2,4.2-19.8c0.4-1.8,0.4-3.6,0.6-5.8c-1.3,0.6-2.1,0.8-2.8,1.3c-2.2,1.4-4.2,3.1-6.5,4.3c-2,1.1-4.3,1.9-6.5,2.4
			c-0.8,0.2-2-0.8-2.9-1.3c-0.3-0.2-0.4-0.9-0.7-1.1c-3.6-3.1-3-7-2.2-11.1c1.2-6.4,2.2-12.9,3.4-19.4c0.2-0.8,1-2,1.7-2.2
			c1.1-0.3,2.5-1.7,3.7,0.4c0.9,1.6,2.3,3,3.4,4.6c0.3,0.5,0.3,1.2,0.3,1.8c-0.5,4.2-1,8.5-1.5,12.7
			C208.1,323.7,208.1,324.3,208,325.3z"/>
		<path d="M76.5,346.1c4,3.4,8.3,6.1,13.6,6.4c2.6,0.1,4,1.6,5.3,3.4c0.7,0.9,1.3,1.8,2,2.9c-2.7,1.8-5.6,1.8-8.6,1.3
			c-4.2-0.8-7.7-2.9-10.9-5.6c-1.3-1.1-2.6-2.3-4-3.3c-0.7-0.4-1.7-0.7-2.5-0.5c-1.2,0.3-2,1.1-1.9,2.6c0.2,3.6,0.1,7.3,0.2,10.9
			c0,1.4-0.3,2.3-1.8,2.6c-1.4,0.3-2.4,0.4-3.5-1c-1.9-2.4-2.7-5-3-8c-0.4-4.3-1.3-8.6-1.9-12.9c-0.9-6.6,0.8-12.6,4.1-18.1
			c2-3.4,6.5-4.9,10.3-3.8c0.4,0.1,0.9,0.3,1.2,0.6c5.7,5.1,8.1,10.8,3.9,18.7C78.3,343.6,77.4,344.8,76.5,346.1z M69,341.5
			c2.7-3.3,4.6-6.7,4.2-11c-0.1-1.6-0.9-2-2.1-0.9c-1.6,1.5-2.9,3.3-4.3,5c-0.1,0.2-0.2,0.5-0.1,0.7C67.5,337.3,68.2,339.3,69,341.5
			z"/>
		<path d="M29.8,336.7c-1.4,3.3-2.7,6.4-4,9.4c-0.8,1.8-1.5,3.5-2.4,5.2c-1.3,2.4-4,2.3-5.8,0.4c-1.9-2-1.9-3.8-0.9-6.2
			c2.9-7.1,5.6-14.2,8.5-21.3c1-2.4,1.3-4.7-0.4-7c-0.5-0.7-0.7-2-0.3-2.5c0.7-0.9,1.9-1.4,3.2-0.7c0.3,0.2,0.8,0.2,1.1,0.1
			c2-1.1,2.9,0.4,3.8,1.6c1.4,2.1,3.2,4,2.4,6.9c-0.1,0.5,0.3,1.3,0.8,1.8c3.6,3.9,9.9,6.6,15.6,3.8c1-0.5,2.9-0.9,3.5-0.3
			c1.4,1.3,2.5,3,3.2,4.8c0.2,0.6-1.4,2.2-2.5,2.7c-5.8,2.5-11.5,2.1-16.8-1.2c-2-1.3-3.7-3-5.6-4.5c-1.5,2.2-1.5,2.3,0.8,3.5
			c2.3,1.2,4.5,2.6,6.8,3.4c3.5,1.3,6.2,3.4,8.1,6.8c-1.8,1.1-3.8,1.5-5.7,0.6c-3.8-1.8-7.5-3.8-11.2-5.8
			C31.3,337.6,30.7,337.2,29.8,336.7z"/>
		<path d="M192.9,330.4c-3,2.6-4.3,4.5-5.6,8.5c5.5,2.8,12.7,3.5,15.1,10.7c-1.1,1.1-3.4,1.5-5.2,0.7c-3.9-1.8-7.8-3.6-12-5.5
			c-0.5,2.4-1.1,4.6-1.3,6.9c-0.2,2.2-1.9,2.1-3.2,2.6c-1.3,0.4-2.2-0.1-3.1-1.2c-2.7-3.3-4-7-4.3-11.2c-0.6-7.5-1.6-14.8-4.3-21.9
			c-0.2-0.6,0.1-1.8,0.6-2.1c0.9-0.5,1.9-1.1,3,0.1c3,3.3,5,7.2,6.4,11.5c0.3,0.8,0.6,1.5,1,2.5c0.9-1.5,1.6-2.8,2.4-4
			c0.7-0.9,1.5-1.9,2.4-2.4c2.9-1.5,4.3-1,6.2,1.8C191.6,328.5,192.2,329.4,192.9,330.4z"/>
		<path d="M104.4,353.7c2-1.1,3.7-1.8,6.1-1.1c5.6,1.6,11.2,1.4,16.8,0c6.1-1.6,6.1-1.6,9.7,3.5c1.4,2,1.3,3-1.1,3.9
			c-2.7,1-5.6,2.1-8.4,2.3c-4.4,0.3-8.9-0.1-13.3-0.4C109.1,361.3,106.7,357.7,104.4,353.7z"/>
		<path d="M104.1,340c2.1-1,3.7-1.6,6-1.3c4.9,0.5,9.8,0.7,14.7,0.2c3.8-0.4,6.3,0.6,8,3.9c0.4,0.7,1,1.3,1.7,2.1
			c-0.6,0.4-1.3,1-2,1.1c-3.1,0.6-6.1,1.4-9.2,1.5c-3.7,0.1-7.4-0.3-11.1-0.5c-2.3-0.2-4.3-1-5.4-3.3
			C106.2,342.3,105.1,341.3,104.1,340z"/>
		<path d="M99.8,328.5c2-1.6,4.1-1.4,6.3-1.2c5.8,0.4,11.6,0.7,17.4,0.6c2.8-0.1,4.3,1.2,5.8,3.2c0.6,0.9,1.2,1.8,2.1,3
			c-1.6,0.4-3.1,1.2-4.6,1.2c-6.2,0-12.3-0.3-18.5-0.5c-2.8-0.1-5.2-1-6.5-3.7C101.3,330.2,100.5,329.4,99.8,328.5z"/>
		<g>
			<path d="M164.5,351.9c3.5,4.4,6.6,8.5,9.9,12.3c1.5,1.7,3.7,3,2.2,6.7c-3.1-3.4-6.1-6.4-8.8-9.6c-2-2.4-3.6-5.2-5.6-7.7
				c-0.6-0.7-1.8-1.3-2.7-1.3c-3,0.2-6,0.6-8.9,1.2c-0.8,0.2-1.7,1.1-2.2,1.8c-1.1,1.7-2,3.6-3.1,5.7c-0.8-0.6-1.2-0.8-1.4-1.2
				c-1.6-2.8-2.3-5.9-5.2-8.2c-2.6-2-1.3-4.3,2.1-4.6c3.8-0.4,4.1-0.9,4.8-4.7c0.9-5.6,2.1-11.1,3.2-16.7c0.1-0.4,0.5-0.8,0.8-1.2
				c0.5,0.3,1,0.6,1.3,1.1c3.9,4.5,6.4,9.9,8.6,15.4c0.7,1.8,1.6,2.4,3.6,2.1c3.7-0.6,7.4-0.8,11.1-1.4c3.9-0.6,6,2.2,6,6
				c0,0.5-1,1.4-1.7,1.5c-3.2,0.7-6.4,1.2-9.6,1.8C167.6,351.2,166.5,351.4,164.5,351.9z M151.3,344.8c1.9-0.4,3.4-0.8,5.3-1.2
				c-1.3-2.5-2.5-4.7-3.7-6.9c-0.2,0-0.4,0.1-0.6,0.1C152,339.4,151.7,341.9,151.3,344.8z"/>
		</g>
	</g>
	<g>
		<path d="M57.1,35.1c-0.2-1.4-0.5-2.9-0.6-4.3c0-0.7,0.3-1.7,0.8-2c0.8-0.5,1.8-0.5,2.6,0.6c3,4,4.1,8.7,4.9,13.5
			c0.8,4.9,1.4,9.8,2.2,14.7c0.1,0.7,0.5,1.4,0.8,2.4c2.1-2,4-3.8,6-5.5c1.4-1.2,2.8-2.5,4.4-3.3c2.9-1.4,4.6-0.6,6,2.4
			c0.5,1,1,1.9,1.6,3c-3.6,3-7.2,6.3-11.2,9.2c-1.5,1.1-3.6,1.4-5.5,1.6c-2.1,0.3-3.7-0.9-4.9-2.6c-3.4-5-5.1-10.6-5.7-16.5
			c-0.4-3.8-0.8-7.5-1.2-11.3c-7.2,2.5-13.9,5.6-19.4,10.8c-1,1-1.2,1.7-0.4,2.8c1.1,1.6,1.9,3.3,3,5.1c2-2.2,3.7-4.3,5.7-6.2
			c1.1-1,2.4-1.9,3.8-2.5c1.5-0.7,2.8-0.1,3.7,1.3c0.8,1.4,1.1,2.7-0.1,4.1c-2.7,2.9-5.4,5.9-8.1,8.8c-0.9,0.9-1,1.6-0.4,2.8
			c3,6,5.9,12,8.8,18c0.3,0.6,0.5,1.2,1,2.2c-1.9,0.3-3.6,0.7-5.2,0.6c-0.6,0-1.4-1-1.8-1.7c-2.4-4.6-4.8-9.3-7.1-14
			c-0.3-0.7-0.7-1.3-1.1-2.1c-0.7,0.5-1.3,1-1.9,1.2c-0.7,0.3-1.7,0.7-2.1,0.4c-0.6-0.5-1.1-1.5-1-2.3c0.2-1.4,0.6-2.8,1.3-4
			c0.6-1.1,0.5-1.9,0-3c-1-1.8-2-3.6-3.2-5.8c-1.3,1.6-2.4,3.1-3.6,4.5c-1.9,2.3-3.8,4.6-5.7,6.8c-0.3,0.3-0.6,0.6-0.9,0.8
			c-1.2,1-2.7,1.6-4.1,0.8c-1.4-0.8-2.4-4.2-1.6-5.4c3.2-4.9,6.4-9.7,9.9-14.4c1-1.4,1.3-2.4,0.4-3.9c-0.5-0.7-0.7-1.6-1.2-2.7
			c1.4-0.5,2.6-0.9,4.2-1.4c0.4,0.6,1,1.5,1.6,2.4c0.8-0.6,1.3-1,1.8-1.4c4.7-3.7,9.8-6.6,15.5-8.2c4.4-1.3,5.4-0.7,7.5,3.3
			c0.1,0.2,0.2,0.4,0.4,0.6C56.8,35.1,56.9,35.1,57.1,35.1z"/>
		<path d="M183.6,28c1.4,2.2,2.8,4.2,4,6.5c0.3,0.6,0.1,1.5,0,2.3c-0.6,3.2-1.4,6.4-2.1,9.6c-0.3,1.2-0.5,2.4-0.4,3.8
			c0.7-0.9,1.3-1.8,2.1-2.5c4-3.8,7.9-7.7,12.1-11.4c1-0.9,2.7-1.3,4.1-1.4c1.8-0.2,2.2,1.8,3,2.9c0.6,0.8,0.9,1.7,1.5,2.8
			c-0.2,0.3-0.5,0.7-0.9,0.9c-11.3,8-18.9,18.8-23.9,31.6c-0.4,0.9-0.9,1.8-1.2,2.8c-0.5,1.1-1,2.1-2.4,2.3
			c-3.7,0.6-3.7,0.3-5.4-2.5c-1.7-2.8-2.3-5.5-1.7-8.6c0.5-2.5,0.7-5.1,1-7.6c-0.2-0.1-0.3-0.2-0.5-0.2c-0.9,1.8-1.9,3.6-2.9,5.3
			c-0.3,0.6-0.9,1.2-1.5,1.3c-0.4,0.1-1.2-0.6-1.4-1.1c-0.4-1.1-1-2.4-0.8-3.5c0.5-2.9,1.1-5.9,2.3-8.6c3.4-7.6,7.1-15.1,10.7-22.6
			c0.3-0.6,1.5-0.9,2.3-1.3C182.1,28.6,182.7,28.4,183.6,28z"/>
		<path d="M129.7,47.2c0.4-7.6,0.7-15.1,4.1-22.1c1.5-3.1,3.2-6,6.2-7.9c2.4-1.5,4.9-2,7.7-1.6c1.8,0.2,3.2,1,4.3,2.6
			c2.5,3.5,4.8,7.1,3.4,11.7c-0.4,1.3-0.8,2.7-1.5,3.8c-2.2,3.1-4.5,6.1-7,9c-1.1,1.3-2.6,2.4-4.1,3c-1.9,0.7-2.3,1.7-2.5,3.5
			c-0.5,5-1.3,9.9-1.9,14.9c-0.3,1.9-1.6,2.3-3.2,2.4c-1.5,0.2-2-0.7-2.7-1.8c-3.1-4.6-2.5-9.9-2.8-15
			C129.7,48.8,129.7,48,129.7,47.2z M141,35.3c0.2,0.1,0.4,0.1,0.5,0.2c1.1-1.4,2.2-2.7,3.2-4.2c1.8-2.4,3.3-4.8,3.6-7.9
			c0.2-1.9-0.6-2.7-2.2-1.6c-1.9,1.3-3.5,3.1-5.2,4.8c-0.2,0.2-0.2,0.6-0.2,0.8c0,1.4,0,2.7,0,4.1C140.9,32.8,141,34.1,141,35.3z"/>
		<path d="M111.8,19.9c3.4-3.3,7.4-4.4,12-3.4c0.7,0.2,1.5,0.5,2,1c4.4,4.7,5.9,10.2,3.7,16.3c-2.1,5.8-6.1,10.5-10.3,14.9
			c-0.8,0.9-1.2,1.6-1,2.8c0.8,4.5,1.5,9,2.4,13.5c0.2,1.1-0.1,1.6-1.2,1.9c-2.6,0.5-2.7,0.3-4.1-1.8c-2.7-3.9-2.6-8.5-3.5-12.8
			c-0.5-2.5-1.1-5-1.5-7.5c-0.6-4.2-1-8.5-1.6-12.7c-0.4-3.3-0.9-6.6-1.2-9.9c-0.1-0.9,0.3-2.2,0.9-2.6c0.8-0.4,2-0.1,3.1-0.1
			C111.7,19.6,111.7,19.7,111.8,19.9z M116.1,38.2c0.2,0,0.4,0,0.6,0c3.6-4.5,6.7-9.1,6.7-15.2c0-1.2-0.9-1.1-1.6-1
			c-2.4,0.4-4.3,1.7-5.9,3.4c-0.6,0.7-1.5,1.6-1.4,2.3C114.8,31.2,115.5,34.7,116.1,38.2z"/>
		<path d="M150.2,62.6c0.9-4.1,1.7-8.2,2.8-12.2c2.2-8,4.6-15.9,7-23.8c0.2-0.8,1.2-1.7,2-1.9c1.2-0.3,2.6-1,3.4,1
			c0.6,1.5,1.8,2.8,2.5,4.2c0.2,0.4,0,1.1-0.1,1.7c-2.7,11.5-5.5,23-8.1,34.6c-0.7,3.2-1.3,3.9-4.6,3.8c-0.5,0-1.3-0.2-1.5-0.6
			c-1.1-1.8-2.1-3.7-3.1-5.6c-0.2-0.3-0.1-0.8-0.2-1.2C150.3,62.6,150.3,62.6,150.2,62.6z"/>
		<path d="M85.3,30.4c0-3.2-0.3-2.7,2.5-3.4c0.5-0.1,1.3,0.2,1.7,0.6c2.4,2.9,3.2,6.4,4,10c1.8,8.3,3.6,16.5,5.5,24.8
			c0.3,1.5-0.2,1.9-1.5,2.2c-3.2,0.6-3.1,0.5-4.9-2.3c-2.7-4.1-3.3-8.8-4.2-13.4C87.3,42.7,86.3,36.6,85.3,30.4z"/>
		<path d="M230.1,53.3c-0.6,0.3-1.1,0.6-1.6,0.6c-4.9,0.8-8.9,3.5-13.1,5.9c-1.5,0.9-3.1,1.4-4.7,1.9c-1.9,0.6-2.7-0.6-3.4-2.1
			c-0.7-1.3-1.1-2.5,0.3-3.7c4.3-3.8,8.8-7.3,14.7-8.4c3.5-0.7,4.9,0.1,6.6,3.4C229.2,51.7,229.6,52.4,230.1,53.3z"/>
		<path d="M165.3,13c-0.7-0.8-1.4-1.4-1.9-2.1c-2-2.8-3-3.3,1.7-5.7c0.4-0.2,0.7-0.4,1.1-0.6c3.3-1.7,5.1-1.1,6.7,2.2
			c1.3,2.7,1.4,2.8-1.5,4.1C169.6,11.5,167.6,12.1,165.3,13z"/>
		<path d="M89.2,4.6C90,6,91,7.7,92,9.3c-2.4,1.4-3.5,1.1-4.8-1.1c-0.6-1-1.3-1.9-2-3C86.5,4.9,87.7,4.8,89.2,4.6z"/>
	</g>
	<path d="M145.4,272.5c-3.9,2.3-7.8,4.8-11.8,6.7c-1.5,0.7-3.6,0.2-5.4,0.3c0-1.8-0.5-3.7,0-5.2c4.3-14.2,5.4-28.9,6-43.7
		c0.1-1.8-0.2-3.7-0.6-5.5c-0.8-3.7-2.9-5-6.8-5.2c-6.5-0.2-12.2,1.5-17.6,5c-1,0.7-1.7,2.1-2.3,3.3c-1.2,2.4-1.8,5.4-3.5,7.3
		c-8.8,10-7.7,20.9-3.7,32.5c1.3,3.9,1.2,8.5,0.9,12.8c-0.3,3.9-4.5,5.2-8.5,3.1c-3.3-1.8-6.5-4-10.9-6.7c0.5,3,0.6,5,1.3,6.8
		c2.4,6.1,5.1,12.1,7.3,18.3c0.7,1.8,0.5,4.3-0.1,6.3c-0.7,2.5-2.4,2.9-5,1.7c-17.1-7.9-22.9-24.3-28.7-40.8
		c-4.2-12-2.2-23.9-0.5-36c0.5-3.5,0.7-7.1,1.3-10.6c0.5-3.1,1.8-6,2.2-9c2.3-15.8,3-31.6-0.3-47.2c-1.8-8.8-5.5-17.2-8.1-25.9
		c-1.4-4.8-2.7-9.6-3.5-14.5c-2.3-13.7,4.5-28.8,16.4-35c5.1-2.7,10.9-2.6,16.7-1.4c7.4,1.6,15,2.6,22.5,3.7
		c11.9,1.7,23.5-1,35.1-2.8c4.7-0.7,9.2-0.6,13.7,1.5c2.6,1.2,5.6,1.6,8.5,1.8c21.3,1.9,29.5,25.4,23.4,39.9
		c-1.7,4.1-2.1,8.9-2.6,13.5c-1.6,17.3-2.3,34.8-10.1,50.7c-2.5,5.1-1.9,9.4,1.2,13.5c8.9,11.7,10.1,25,7.9,39
		c-1.3,8.7-2.7,17.5-4.6,26.1c-2.4,10.9-6.1,21.3-13.4,29.7c-2.7,3.1-6.1,5.6-9.2,8.2c-1.7,1.4-5.5-0.8-5.8-3.7
		c-0.3-2.7,0.1-5.7,1-8.3c0.7-2.1,1.4-3.5,0.1-5.7c-0.9-1.5-1-3.7-1-5.6c-0.1-6.2,0-12.3,0-18.5
		C146.3,272.7,145.9,272.6,145.4,272.5z M150.5,307.2c2.9-2.6,4.3-4.7,6.6-7.5c6.3-7.6,9.7-16.8,11.8-26.4
		c1.8-8.3,3.1-16.8,4.3-25.3c1.6-11.3,1.4-22.4-5-32.4c-2.1-3.3-3.9-6.8-5.9-10.3c-2.8,1.6-5.9,3.4-9.1,5.2c-1.4-3-1.3-2.9,1.2-4.9
		c3.5-2.7,8.3-5,10.1-8.7c4.4-8.8,7-18.4,7.8-28.4c-3.4-0.7-4.2-2-2.2-4.3c3.2-3.7,3.4-8.1,3.9-12.6c0.6-5.7,0.7-11.8,2.7-17
		c4.9-12.5-2-30.3-18.7-31.9c-3.1-0.3-6.4-0.8-9.1-2c-3.7-1.7-7.1-1.7-11-1.3c-9.7,1.1-19.5,3-29.1,2.8c-10.1-0.3-20.1-3-30.2-4
		c-4-0.4-8.8-0.1-12.2,1.9C56,106,50.8,119.5,54,131.6c2.5,9.6,5.7,18.9,8.7,28.4c3.7,11.8,4.7,24.1,3.8,36.2
		c-1,12.4-3.5,24.6-5.3,36.9c-1.4,9.6-3.1,19.1-0.5,28.8c2.8,10.4,7.2,20,13,28.9c3.4,5.2,6,9.5,12.3,12.2c-0.5-1.9-0.6-4.2-1-5.2
		c-1.9-4.9-4.2-9.7-5.8-14.7c-1.1-3.5-0.3-7.1,0.2-10.6c1.1-7.3,3-14.5,5.1-21.6c3-9.9,7.2-19.7,16.1-25.7c4-2.6,8.2-4.9,12.4-7.1
		c6.4-3.4,13.1-2.3,19.8-0.8c0.8,0.2,1.6,1,2.3,1.7c11,10.7,16.4,23.9,14.5,38.9c-0.2,1.8-0.5,3.8-0.3,5.6c0.4,3.9,0.9,7.7,1.6,11.5
		c0.5,2.4-1.6,5-0.5,7.1c1.4,2.5,3.4,4.5,5.2,6.7c-0.3,0.4-0.6,0.8-0.9,1.2c-2-1.2-1.5-0.6-3.5-1.9c-2.9,6.5,2.5,5.6,3.6,10.9
		c-2-0.5-1.5-2.2-3-2.6C152.1,300,150.1,302.3,150.5,307.2z M131.5,273.1c3.4-1.6,6.6-2.7,9.4-4.4c3.6-2.3,3.9-6.4,4.3-10.3
		c1.2-11.4,0-22.2-7.5-31.8C136.1,242.2,136.4,257.8,131.5,273.1z M99.8,232.1c-0.4-0.4-0.8-0.8-1.2-1.1c-1.2,1.7-2.6,3.3-3.6,5.1
		c-6.7,11-9.8,23.2-12.3,35.8c-0.1,0.6,0.5,1.8,1.2,2.2c2.3,1.5,4.8,2.8,7.2,4.3c2.3,1.4,3.5,0.3,3.6-2c0.2-3.1,0.4-6.3-0.2-9.3
		c-1.8-8.8-3.7-17.6,0.4-26.2C96.3,237.8,98.2,235,99.8,232.1z"/>
	<path d="M92.1,150.4c2.4-2.3,5-4.3,7.1-6.8c7.5-8.6,22.9-9.4,30.3-5.9c4.4,2.1,7.3,5.8,9.5,10.3c1.5,3.1,3.6,5.8,5.4,8.7
		c0.4,0.7,0.9,1.7,0.7,2.3c-0.2,0.6-1.2,1-1.9,1.3c-3.4,1.5-7.2,2.4-10.1,4.6c-8.7,6.4-19.6,7.1-28.7,1.3c-3.2-2-6.3-4.2-9.7-6
		c-1.8-1-4.1-1-6.1-1.7c-1.3-0.5-2.4-1.3-3.6-2c0.9-0.9,1.8-1.7,2.6-2.6c0.4-0.4,0.8-0.9,1.2-1.4C89.8,151.8,90.9,151.1,92.1,150.4z
		 M93.1,154.8c5.1,3,10.1,6.5,15.5,9.1c7.9,3.8,15.7,3.1,22.7-2.7c2.2-1.8,4.8-3.2,7.4-4.8c-1.2-2.9-2.5-5.9-3.7-8.9
		c-1.9,9.2-6.6,14.9-16.3,14.4c-9.8-0.6-15.2-6-15.1-16.7C99.7,148.7,96.5,151.7,93.1,154.8z M107.8,142c-1.6,4.6-1.3,8.9,2.1,12.2
		c3.9,3.9,8.7,4.7,14,2.9c4.1-1.4,5.4-4.7,6.3-8.6c-3.1,6.1-7.3,6.6-13.9,5.5C108.4,152.6,108,148,107.8,142z"/>
	<path d="M118.9,114.4c-5.6,0.7-11.3,1.2-16.9,2c-2.9,0.4-4.6,2.2-5.7,4.9c-1,2.4-2.7,4.5-4.4,6.5c-0.6,0.6-2.1,0.4-3.2,0.6
		c0.2-1,0.2-2.1,0.6-3c1.4-2.4,2.8-4.7,4.5-6.9c1.5-2,3.4-3.8,5.2-5.7c-0.4-0.1-1.2-0.4-1.9-0.3c-8.8,1.6-16.5,4.7-20.8,13.4
		c-0.7,1.5-2.7,2.3-4,3.5c0.3-1.7,0.2-3.6,0.9-5.1c4.1-7.8,5.6-8.8,19.4-14.7c-6.2-3.1-12.2-3.8-18.4-1.8c-2.6,0.9-5.2,2-7.9,2.7
		c-0.9,0.2-2-0.4-3-0.7c0.5-1,0.8-2.4,1.6-2.9c9.1-5.4,18.5-6,28-1.1c8.5,4.4,17.4,5.9,26.9,4.7c4.6-0.5,9.4,0.2,14-0.2
		c4.2-0.3,8.4-1.3,12.7-2c1.2-0.2,2.4-1.1,3.6-1.1c0.9,0,1.8,0.9,2.8,1.4c-0.5,0.9-0.8,2-1.5,2.5c-0.8,0.7-2,0.9-3.6,1.6
		c2.6,1.4,4.9,2.3,6.9,3.6c3.8,2.7,7.5,5.5,11.1,8.5c0.9,0.8,0.9,2.5,1.4,3.8c-1.3-0.3-2.8-0.2-3.7-0.9c-2.8-2.1-5.4-4.6-8.1-6.8
		c-7.4-5.7-15.9-5.9-24.5-3.9c-8.7,2-17.3,4.6-26,6.9c-0.9,0.2-2.1-0.5-3.2-0.8c0.7-1,1.3-2.6,2.2-2.9c5.1-1.9,10.3-3.4,15.4-5.1
		C119.1,114.9,119,114.7,118.9,114.4z"/>
	<path d="M77.8,179.5c1.4,0.6,2.9,1,4.1,1.8c9.4,6.8,20.3,9.7,31.5,9.6c8.8-0.1,17.7-2.8,26.5-4.3c1.6-0.3,4.6-0.2,4.8,0.3
		c0.8,2.9-2,3.2-3.7,3.6c-7.3,1.6-14.6,3-21.9,4.3c-3.8,0.7-7.8,1.8-11.6,1.5c-7.3-0.5-14.6-1.7-21.8-2.8c-0.6-0.1-1-1.1-1.5-1.7
		c0.6-0.5,1.2-1.3,1.8-1.4c1.7-0.1,3.5,0.1,5.4,0c-5.1-2.8-10.3-5.5-14.2-9.8C77.3,180.4,77.5,179.9,77.8,179.5z"/>
	<path d="M83.9,160.1c5.7,0,9.8,2.3,13.8,4.8c4,2.5,7.7,5.3,11.8,7.4c5.3,2.8,10.7,2.1,16-0.7c4.4-2.3,9.1-4.3,13.8-6.1
		c1.1-0.4,2.7,0.7,4,1.1c-1.1,0.9-2.2,2-3.4,2.6c-4,1.9-8.3,3.1-12,5.3c-8.5,5.3-16.4,3.4-24.3-1.2c-5.9-3.4-11.7-6.9-17.5-10.4
		c-0.4-0.3-0.9-0.5-1.2-0.9C84.6,161.9,84.5,161.3,83.9,160.1z"/>
	<path d="M90.7,149c-1,1.2-3.8,3.9-4.5,4.4c-3.7,2.2-2.4-0.3-5.1,0.6c7-7.2,12.9-13.7,19.1-19.8c3-2.9,6.3-2.3,8.1,0
		C101.3,138,95.1,142.7,90.7,149z"/>
	<path d="M140.7,144.5c-7.2-9-17.3-11.7-28.3-13.6c4-2.8,13.6-1.2,20.4,3.1C136.6,136.4,140.7,138.8,140.7,144.5z"/>
	<path d="M62.6,130.7c0.2-6.9,4.7-11.2,6.1-16.3c2.1,0.4,3.7,0.4,5.1,1c0.6,0.3,1.1,2.6,1.1,2.6c-5.1,2.4-7.7,6.9-10.2,11.6
		C64.6,129.9,64,130,62.6,130.7z"/>
</g>
</svg>
